<svg width="33" height="33" viewBox="0 0 33 33" fill="none" xmlns="http://www.w3.org/2000/svg">
<path d="M27.1068 16.5001C26.4558 16.5001 25.9282 17.0277 25.9282 17.6787V29.4643C25.9282 30.1152 25.4005 30.6429 24.7496 30.6429H3.53567C2.88475 30.6429 2.35709 30.1152 2.35709 29.4643V5.89296C2.35709 5.24203 2.88475 4.71437 3.53567 4.71437H17.6783C18.3293 4.71437 18.8569 4.18671 18.8569 3.53578C18.8569 2.88485 18.3293 2.35726 17.6783 2.35726H3.53567C1.58297 2.35726 0 3.94024 0 5.89296V29.4643C0 31.417 1.58297 33 3.53567 33H24.7497C26.7024 33 28.2853 31.417 28.2853 29.4643V17.6786C28.2853 17.0277 27.7577 16.5001 27.1068 16.5001Z" fill="#4F3A57"/>
<path d="M31.6789 1.32172C30.8327 0.475301 29.6849 -0.000119476 28.4881 1.86474e-05C27.2906 -0.00343444 26.1416 0.472815 25.2978 1.32248L9.77376 16.8464C9.64497 16.9762 9.54781 17.134 9.48973 17.3073L7.13264 24.3792C6.92692 24.9968 7.26081 25.6642 7.87838 25.8699C7.99819 25.9098 8.12366 25.9302 8.2499 25.9303C8.37641 25.9301 8.50216 25.9098 8.62232 25.8703L15.6937 23.513C15.8673 23.455 16.0251 23.3573 16.1545 23.2277L31.6784 7.70254C33.4403 5.94064 33.4406 3.08383 31.6789 1.32172ZM30.0119 6.03705L14.6907 21.3596L10.1132 22.8882L11.637 18.3162L26.9641 2.99377C27.8068 2.15274 29.1717 2.15412 30.0126 2.99681C30.4143 3.39937 30.6407 3.94434 30.6424 4.51306C30.6439 5.08482 30.4169 5.63345 30.0119 6.03705Z" fill="#4F3A57"/>
</svg>
