<svg width="47" height="47" viewBox="0 0 47 47" fill="none" xmlns="http://www.w3.org/2000/svg">
<path d="M23.5 0C18.8521 0 14.3087 1.37825 10.4441 3.96046C6.57955 6.54268 3.5675 10.2129 1.78884 14.5069C0.0101822 18.801 -0.455196 23.5261 0.451556 28.0846C1.35831 32.6432 3.59647 36.8305 6.883 40.117C10.1695 43.4035 14.3568 45.6417 18.9154 46.5484C23.4739 47.4552 28.199 46.9898 32.4931 45.2112C36.7871 43.4325 40.4573 40.4205 43.0395 36.5559C45.6217 32.6913 47 28.1479 47 23.5C47 17.2674 44.5241 11.2901 40.117 6.88299C35.7099 2.47589 29.7326 0 23.5 0ZM23.5 43.0833C19.6268 43.0833 15.8406 41.9348 12.6201 39.7829C9.39963 37.6311 6.88958 34.5726 5.40737 30.9942C3.92515 27.4158 3.53734 23.4783 4.29296 19.6795C5.04859 15.8807 6.91372 12.3913 9.6525 9.65249C12.3913 6.91371 15.8807 5.04858 19.6795 4.29295C23.4783 3.53733 27.4158 3.92514 30.9942 5.40736C34.5726 6.88957 37.6311 9.39962 39.7829 12.6201C41.9348 15.8405 43.0833 19.6268 43.0833 23.5C43.0833 28.6938 41.0201 33.6749 37.3475 37.3475C33.6749 41.0201 28.6938 43.0833 23.5 43.0833Z" fill="#4F3A57"/>
<path d="M28.5917 30.6773C27.6051 31.1143 26.5373 31.3378 25.4583 31.3333C24.2849 31.3326 23.1266 31.0682 22.0691 30.5598C21.0115 30.0514 20.0817 29.3118 19.3483 28.3958H25.4583V24.4792H17.6935C17.6022 23.8296 17.6022 23.1704 17.6935 22.5208H25.4583V18.6042H19.3483C20.0817 17.6882 21.0115 16.9486 22.0691 16.4402C23.1266 15.9317 24.2849 15.6674 25.4583 15.6667C26.5373 15.6621 27.6051 15.8857 28.5917 16.3227L30.3835 17.106L31.9502 13.5125L30.1583 12.7292C27.3381 11.5033 24.1497 11.4319 21.2774 12.5303C18.4051 13.6286 16.0779 15.8093 14.7952 18.6042H11.75V22.5208H13.7573C13.7573 22.8439 13.7083 23.1671 13.7083 23.5C13.7083 23.8329 13.7083 24.156 13.7573 24.4792H11.75V28.3958H14.7952C16.0779 31.1907 18.4051 33.3713 21.2774 34.4697C24.1497 35.5681 27.3381 35.4967 30.1583 34.2708L31.9502 33.4875L30.3542 29.8939L28.5917 30.6773Z" fill="#4F3A57"/>
</svg>
