<svg width="209" height="209" viewBox="0 0 209 209" fill="none" xmlns="http://www.w3.org/2000/svg">
<g filter="url(#filter0_d)">
<circle cx="104.5" cy="100.5" r="74.5" fill="white"/>
</g>
<path fill-rule="evenodd" clip-rule="evenodd" d="M93.8232 73.2914C94.3641 72.4846 95.2748 72 96.25 72H113.75C114.725 72 115.636 72.4846 116.177 73.2914L121.144 80.7H131.25C133.571 80.7 135.796 81.6166 137.437 83.2482C139.078 84.8797 140 87.0926 140 89.4V121.3C140 123.607 139.078 125.82 137.437 127.452C135.796 129.083 133.571 130 131.25 130H78.75C76.4294 130 74.2038 129.083 72.5628 127.452C70.9219 125.82 70 123.607 70 121.3V89.4C70 87.0926 70.9219 84.8797 72.5628 83.2482C74.2038 81.6166 76.4294 80.7 78.75 80.7H88.8557L93.8232 73.2914ZM97.811 77.8L92.8435 85.2086C92.3025 86.0154 91.3919 86.5 90.4167 86.5H78.75C77.9765 86.5 77.2346 86.8055 76.6876 87.3494C76.1406 87.8932 75.8333 88.6309 75.8333 89.4V121.3C75.8333 122.069 76.1406 122.807 76.6876 123.351C77.2346 123.894 77.9765 124.2 78.75 124.2H131.25C132.024 124.2 132.765 123.894 133.312 123.351C133.859 122.807 134.167 122.069 134.167 121.3V89.4C134.167 88.6309 133.859 87.8932 133.312 87.3494C132.765 86.8055 132.024 86.5 131.25 86.5H119.583C118.608 86.5 117.697 86.0154 117.157 85.2086L112.189 77.8H97.811ZM105 95.2C100.168 95.2 96.25 99.0951 96.25 103.9C96.25 108.705 100.168 112.6 105 112.6C109.832 112.6 113.75 108.705 113.75 103.9C113.75 99.0951 109.832 95.2 105 95.2ZM90.4167 103.9C90.4167 95.8919 96.9458 89.4 105 89.4C113.054 89.4 119.583 95.8919 119.583 103.9C119.583 111.908 113.054 118.4 105 118.4C96.9458 118.4 90.4167 111.908 90.4167 103.9Z" fill="#C8CBD8"/>
<defs>
<filter id="filter0_d" x="0" y="0" width="209" height="209" filterUnits="userSpaceOnUse" color-interpolation-filters="sRGB">
<feFlood flood-opacity="0" result="BackgroundImageFix"/>
<feColorMatrix in="SourceAlpha" type="matrix" values="0 0 0 0 0 0 0 0 0 0 0 0 0 0 0 0 0 0 127 0"/>
<feOffset dy="4"/>
<feGaussianBlur stdDeviation="15"/>
<feColorMatrix type="matrix" values="0 0 0 0 0 0 0 0 0 0 0 0 0 0 0 0 0 0 0.06 0"/>
<feBlend mode="normal" in2="BackgroundImageFix" result="effect1_dropShadow"/>
<feBlend mode="normal" in="SourceGraphic" in2="effect1_dropShadow" result="shape"/>
</filter>
</defs>
</svg>
