<svg width="31" height="34" viewBox="0 0 31 34" fill="none" xmlns="http://www.w3.org/2000/svg">
<path d="M29.5984 22.3249L26.5558 19.2654V11.7267C26.5963 8.92731 25.6226 6.20778 23.8144 4.07028C22.0062 1.93278 19.4857 0.521679 16.7183 0.0975248C15.1122 -0.113986 13.4795 0.0194585 11.9291 0.488955C10.3786 0.958452 8.94616 1.7532 7.72721 2.82018C6.50826 3.88716 5.53088 5.20183 4.86027 6.67647C4.18967 8.15111 3.84127 9.75181 3.83831 11.3718V19.2654L0.795783 22.3249C0.413617 22.7134 0.154458 23.206 0.050702 23.741C-0.0530537 24.276 0.00319807 24.8298 0.212425 25.333C0.421651 25.8362 0.77457 26.2666 1.22706 26.5703C1.67955 26.8741 2.21154 27.0377 2.75652 27.0408H8.43591V27.6155C8.51486 29.3315 9.27083 30.9462 10.5382 32.1058C11.8055 33.2654 13.4808 33.8753 15.1971 33.802C16.9133 33.8753 18.5886 33.2654 19.856 32.1058C21.1233 30.9462 21.8793 29.3315 21.9582 27.6155V27.0408H27.6376C28.1826 27.0377 28.7146 26.8741 29.1671 26.5703C29.6196 26.2666 29.9725 25.8362 30.1817 25.333C30.391 24.8298 30.4472 24.276 30.3434 23.741C30.2397 23.206 29.9805 22.7134 29.5984 22.3249ZM18.5777 27.6155C18.4839 28.4285 18.0801 29.174 17.4504 29.6967C16.8206 30.2194 16.0135 30.479 15.1971 30.4214C14.3807 30.479 13.5735 30.2194 12.9438 29.6967C12.314 29.174 11.9102 28.4285 11.8165 27.6155V27.0408H18.5777V27.6155ZM4.22708 23.6602L6.22162 21.6657C6.53799 21.3512 6.78899 20.9772 6.96015 20.5652C7.13131 20.1533 7.21925 19.7115 7.21889 19.2654V11.3718C7.21981 10.2315 7.46463 9.10463 7.93692 8.06676C8.40921 7.0289 9.09803 6.10407 9.95717 5.35433C10.8047 4.5864 11.809 4.01182 12.9005 3.67035C13.9921 3.32888 15.1448 3.22868 16.2789 3.37669C18.2337 3.69409 20.008 4.70697 21.2752 6.22886C22.5424 7.75074 23.2172 9.67918 23.1753 11.6591V19.2654C23.1727 19.7103 23.258 20.1514 23.4262 20.5633C23.5944 20.9752 23.8423 21.3498 24.1556 21.6657L26.1671 23.6602H4.22708Z" fill="#4F3A57"/>
</svg>
