<svg width="47" height="47" viewBox="0 0 47 47" fill="none" xmlns="http://www.w3.org/2000/svg">
<path d="M23.5 47C10.5416 47 0 36.4584 0 23.5C0 10.5416 10.5416 0 23.5 0C36.4584 0 47 10.5416 47 23.5C47 36.4584 36.4584 47 23.5 47ZM23.5 2.9375C12.1613 2.9375 2.9375 12.1613 2.9375 23.5C2.9375 34.8387 12.1613 44.0625 23.5 44.0625C34.8387 44.0625 44.0625 34.8387 44.0625 23.5C44.0625 12.1613 34.8387 2.9375 23.5 2.9375Z" fill="#4F3A57"/>
<path d="M33.7813 24.9687H13.2188C12.408 24.9687 11.75 24.3107 11.75 23.5C11.75 22.6892 12.408 22.0312 13.2188 22.0312H33.7813C34.592 22.0312 35.25 22.6892 35.25 23.5C35.25 24.3107 34.592 24.9687 33.7813 24.9687Z" fill="#4F3A57"/>
<path d="M23.5 35.25C22.6892 35.25 22.0313 34.592 22.0313 33.7812V13.2187C22.0313 12.408 22.6892 11.75 23.5 11.75C24.3108 11.75 24.9688 12.408 24.9688 13.2187V33.7812C24.9688 34.592 24.3108 35.25 23.5 35.25Z" fill="#4F3A57"/>
</svg>
