<svg width="48" height="40" viewBox="0 0 48 40" fill="none" xmlns="http://www.w3.org/2000/svg">
<path d="M46.3625 12.1619L35.4969 1.34506C34.6004 0.452555 33.691 0 32.7942 0C31.5629 0 30.125 0.932361 30.125 3.56005V7.24265C22.2308 7.58517 14.8588 10.8081 9.23606 16.4054C3.28069 22.3336 0.000656267 30.2158 1.70253e-08 38.5999C-9.3733e-05 39.2022 0.387 39.7372 0.960938 39.9279C1.10738 39.9765 1.25747 40 1.40606 40C1.83984 40 2.25975 39.7996 2.53059 39.4409C9.16969 30.6432 19.1654 25.444 30.125 25.0334V28.6592C30.125 31.2868 31.5628 32.2192 32.7941 32.2193C33.6909 32.2193 34.6005 31.7668 35.4969 30.8742L46.3624 20.0574C47.4185 19.0063 48 17.6043 48 16.1097C48 14.615 47.4185 13.213 46.3625 12.1619ZM44.3738 18.0776L33.5082 28.8945C33.2998 29.102 33.1272 29.233 32.9999 29.3127C32.9664 29.1668 32.9375 28.9526 32.9375 28.6593V23.6072C32.9375 22.8341 32.3078 22.2073 31.5312 22.2073C25.2831 22.2073 19.3126 23.6324 13.7859 26.443C9.81844 28.4606 6.19163 31.1767 3.12028 34.4113C5.16347 20.6268 17.1262 10.0121 31.5312 10.0121C32.3078 10.0121 32.9375 9.38531 32.9375 8.61217V3.56005C32.9375 3.26672 32.9664 3.05253 32.9998 2.90675C33.1271 2.98636 33.2998 3.11739 33.5082 3.32486L44.3738 14.1418C44.8986 14.6641 45.1875 15.363 45.1875 16.1097C45.1875 16.8563 44.8986 17.5552 44.3738 18.0776Z" fill="#4F3A57"/>
</svg>
