<svg width="24" height="29" viewBox="0 0 24 29" fill="none" xmlns="http://www.w3.org/2000/svg">
<path d="M20.724 8.61131L22.4484 6.87923L20.7516 5.17426L18.9069 7.02718C17.2217 5.82761 15.2552 5.0883 13.2 4.88166V2.4107H15.6V0H8.4V2.4107H10.8V4.88166C8.74481 5.0883 6.7783 5.82761 5.0931 7.02718L3.2484 5.17426L1.55161 6.87923L3.276 8.61131C1.66638 10.3232 0.591175 12.4711 0.183165 14.7898C-0.224845 17.1085 0.0522112 19.4965 0.980119 21.6588C1.90803 23.8212 3.44615 25.6632 5.40453 26.9573C7.36291 28.2515 9.65579 28.9412 12 28.9412C14.3442 28.9412 16.6371 28.2515 18.5955 26.9573C20.5539 25.6632 22.092 23.8212 23.0199 21.6588C23.9478 19.4965 24.2248 17.1085 23.8168 14.7898C23.4088 12.4711 22.3336 10.3232 20.724 8.61131ZM12 26.5177C10.1013 26.5177 8.24524 25.9521 6.66653 24.8926C5.08782 23.833 3.85736 22.327 3.13076 20.565C2.40416 18.803 2.21405 16.8642 2.58447 14.9937C2.95488 13.1232 3.86919 11.405 5.21178 10.0564C6.55436 8.70783 8.26492 7.78945 10.1271 7.41738C11.9894 7.04531 13.9196 7.23627 15.6738 7.96611C17.4279 8.69595 18.9272 9.93189 19.9821 11.5176C21.037 13.1034 21.6 14.9677 21.6 16.8749C21.5971 19.4314 20.5848 21.8824 18.7851 23.6902C16.9853 25.4979 14.5452 26.5148 12 26.5177Z" fill="#FF0000"/>
<path d="M12 9.64279V16.8749H4.79999C4.79999 18.3053 5.22226 19.7035 6.01341 20.8928C6.80456 22.0821 7.92904 23.0091 9.24467 23.5565C10.5603 24.1038 12.008 24.2471 13.4046 23.968C14.8013 23.689 16.0842 23.0002 17.0912 21.9887C18.0981 20.9773 18.7838 19.6887 19.0616 18.2858C19.3395 16.8829 19.1969 15.4288 18.6519 14.1073C18.107 12.7858 17.1841 11.6563 16.0001 10.8616C14.8161 10.0669 13.424 9.64279 12 9.64279Z" fill="#FF0000"/>
</svg>
