<svg width="375" height="112" viewBox="0 0 375 112" fill="none" xmlns="http://www.w3.org/2000/svg">
<path d="M76.4197 111.668C94.1929 111.475 111.632 109.579 128.797 106.668C160.358 86.4231 191.973 66.7826 226.922 58.9904C259.237 51.796 292.408 55.4324 324.201 66.0568C330.917 65.7268 337.656 65.6424 344.387 65.8041C354.729 66.0809 364.994 67.1021 375 68.8498V34.0591C375 26.8826 370.685 20 363.003 14.9254C355.322 9.85088 344.904 7.00002 334.041 7.00002L40.9539 7.00003C35.5763 7.00003 30.2514 7.70006 25.2835 9.06012C20.3156 10.4202 15.802 12.4136 12.0008 14.9265C8.1995 17.4394 5.18498 20.4225 3.12953 23.7054C1.07407 26.9882 0.0179532 30.5065 0.0214932 34.0591L0.0214938 102.659C24.5163 108.522 49.9536 111.963 76.4197 111.668Z" fill="#162259"/>
<path d="M0 0H375V46H0V0Z" fill="#162259"/>
</svg>
